<?xml version="1.0" encoding="UTF-8"?>
<svg width="48pt" height="48pt" version="1.1" viewBox="0 0 22.578 22.578" xmlns="http://www.w3.org/2000/svg" xmlnscc="http://creativecommons.org/ns#" xmlnsdc="http://purl.org/dc/elements/1.1/" xmlnsrdf="http://www.w3.org/1999/02/22-rdf-syntax-ns#">
<metadata>
<rdfRDF>
<ccWork rdfabout="">
<dcFormat>image/svg+xml</dcFormat>
<dctype rdfresource="http://purl.org/dc/dcmitype/StillImage"/>
</ccWork>
</rdfRDF>
</metadata>
<g transform="translate(0 -274.42)">
<path d="m19.138 276.62c-0.13846-0.0669-0.25683-0.0554-0.35104 0.0182-0.10007-0.67592-0.68264-1.203-1.3847-1.203h-12.868c-0.77135 0-1.4028 0.63409-1.4028 1.4054-3.314e-4 0.19804 0 0.39061 0 0.58853h-0.59111c-0.77135-4e-5 -1.4028 0.63144-1.4028 1.4028v15.798c-2.5e-6 0.77135 0.63149 1.4028 1.4028 1.4028h12.995c0.70174 0 1.2776-0.57588 1.2776-1.2776v-2.2743l1.8642-1.8311c0.08329-0.0832 0.12506-0.12079 0.12402-0.23416l6e-3 -8.5131 0.66119-1.1446c0.05163-0.0557 0.25576-0.27773 0.46978-0.56451 0.47959-0.71338 0.8626-1.4523 1.0894-2.1568 0.03565-0.1115 0.01004-0.23348-0.06748-0.32119-0.02519-0.0295-0.05335-0.06-0.07851-0.0883l0.42825-0.7423c0.27625-0.47845 0.09516-1.0907-0.37569-1.3626-0.59585-0.28173-1.1125-0.0679-1.3822 0.37893zm1.3367-0.56516c0.04444 5e-3 0.0881 0.0182 0.12847 0.0416 0.17507 0.10107 0.22972 0.28932 0.13302 0.45679l-0.35752 0.61966c-0.18508-0.13515-0.38419-0.24973-0.59371-0.34259l0.34455-0.59631c0.07252-0.12561 0.21186-0.19266 0.3452-0.17908zm-3.0724 0.0447c0.41226 0 0.741 0.32875 0.741 0.74101v0.54959c-0.4379 0.67358-0.80362 1.3793-1.0135 2.0348l-1.7318 2.9945-0.02206 0.0233c-0.26549 0.28945-0.37712 0.42268-0.4542 0.59242-0.07168 0.15785-0.09582 0.27866-0.21218 0.56775l-9e-3 0.01c-0.55153 0.60127-0.98992 1.2916-1.3023 2.042-0.0621 0.14566-0.06544 0.29484-0.08305 0.42759l-0.19271 1.6293c-0.03648 0.30585 0.12605 0.58519 0.35882 0.71958 0.23277 0.13439 0.55795 0.13714 0.80459-0.0473l1.3133-0.98369c0.1374-0.0736 0.23826-0.19675 0.33029-0.28354 0.48059-0.70678 0.89544-1.4672 1.118-2.1588 0.19484-0.24923 0.28715-0.32912 0.38867-0.47107 0.1584-0.28247 0.21799-0.4802 0.29264-0.7157l0.41462-0.71764v7.0006h-3.0509c-0.18347-7e-4 -0.33278 0.14745-0.33351 0.33092v2.9893h-10.349c-0.34264 0-0.61317-0.27054-0.61317-0.61317v-1.4852c0.18372-0.0496 0.35172-0.035 0.47626 6e-3 0.1651 0.055 0.18882 0.15585 0.18882 0.10058 6.642e-4 0.18247 0.14845 0.33022 0.33092 0.33092 0.18348 7.3e-4 0.3328-0.14744 0.33351-0.33092 0-0.38757-0.30915-0.61955-0.64237-0.73062-0.25376-0.0789-0.45681-0.0717-0.68715-0.0467v-1.3263c0.19867-0.0625 0.37887-0.064 0.49573-0.0324 0.15214 0.0411 0.16935 0.0732 0.16935 0.1421 3.314e-4 0.18273 0.1482 0.33086 0.33092 0.33158 0.18373 7.2e-4 0.33315-0.14784 0.33351-0.33158-6.3e-6 -0.38974-0.3163-0.69102-0.66249-0.78446-0.22425-0.0688-0.45891-0.0349-0.66703-0.0113v-1.3049c0.19867-0.0633 0.37887-0.0666 0.49573-0.035 0.15214 0.0411 0.16935 0.0738 0.16935 0.14275 6.642e-4 0.18247 0.14845 0.33022 0.33092 0.33092 0.18348 7.3e-4 0.3328-0.14744 0.33351-0.33092-6.3e-6 -0.38975-0.31631-0.69167-0.66249-0.78512-0.22428-0.0681-0.45897-0.0343-0.66703-0.0113v-1.3055c0.19867-0.063 0.37887-0.0659 0.49573-0.0344 0.15214 0.0411 0.16935 0.0732 0.16935 0.1421-6.643e-4 0.18348 0.14744 0.3328 0.33092 0.33352 0.18449 7.2e-4 0.33423-0.14902 0.33351-0.33352-6.3e-6 -0.38975-0.31631-0.68908-0.66249-0.78252-0.22413-0.0684-0.45894-0.0355-0.66703-0.0129v-1.3062c0.19867-0.063 0.37887-0.0659 0.49573-0.0344 0.15215 0.0411 0.16935 0.0732 0.16935 0.1421-6.643e-4 0.18347 0.14744 0.3328 0.33092 0.33352 0.18449 7.3e-4 0.33423-0.14903 0.33351-0.33352-6.3e-6 -0.38976-0.31631-0.68909-0.66249-0.78253-0.22429-0.0681-0.45901-0.0343-0.66703-0.0113v-1.3075c0.19868-0.0624 0.37887-0.064 0.49573-0.0324 0.15215 0.0411 0.16935 0.0732 0.16935 0.14211 6.642e-4 0.18247 0.14845 0.3302 0.33092 0.33092 0.18449 7.3e-4 0.33423-0.14903 0.33351-0.33352-6.3e-6 -0.38976-0.31631-0.68844-0.66249-0.78188-0.22425-0.0688-0.45891-0.0349-0.66703-0.0113v-1.3074c0.19867-0.0625 0.37887-0.064 0.49573-0.0324 0.15215 0.0411 0.16935 0.0732 0.16935 0.14211 3.314e-4 0.18272 0.1482 0.33086 0.33092 0.33156 0.18373 6.7e-4 0.33315-0.14783 0.33351-0.33156-6.3e-6 -0.38974-0.31631-0.69104-0.66249-0.78447-0.22425-0.0688-0.45891-0.0349-0.66703-0.0113v-1.3049c0.19867-0.0633 0.37887-0.0666 0.49573-0.035 0.15215 0.0411 0.16935 0.0738 0.16935 0.14276 6.642e-4 0.18246 0.14845 0.3302 0.33092 0.33092 0.18348 6.5e-4 0.3328-0.14745 0.33351-0.33092-6.3e-6 -0.38975-0.31631-0.6917-0.66249-0.78513-0.21316-0.0644-0.43345-0.0368-0.63264-0.0162 0.090154-0.30626 0.36633-0.52818 0.53512-0.52817zm-6.1726 0.73844-1.1894 0.95122c-0.41872-0.61733-1.1259-1.0252-1.9252-1.0252-1.2804 0-2.3249 1.0445-2.3249 2.3249 0 1.2804 1.0445 2.3249 2.3249 2.3249 1.2804 0 2.3249-1.0445 2.3249-2.3249 0-0.23914-0.03621-0.46973-0.10382-0.68714l1.3081-1.0466c0.14239-0.11477 0.16529-0.32295 0.05125-0.46589-0.10252-0.12066-0.32224-0.15257-0.46588-0.0512zm7.8551 0.48208c0.46878 0.11615 0.89168 0.35893 1.2257 0.70791-0.31558 0.83303-0.67338 1.5152-1.1926 2.1114-0.41541-0.2394-0.83058-0.47923-1.2458-0.71893 0.26864-0.77138 0.67367-1.4863 1.2127-2.1004zm-10.97 0.10899c0.59511 0 1.1106 0.31072 1.4035 0.77733l-1.3276 1.0616-0.46329-0.69363c-0.10139-0.1535-0.30822-0.1954-0.46134-0.0934-0.15328 0.10158-0.19487 0.30838-0.092791 0.46134l0.66443 0.99536c0.10782 0.16196 0.33112 0.19703 0.4834 0.076l1.4372-1.1498c0.00992 0.074 0.016876 0.14837 0.016876 0.22515 0 0.92133-0.73911 1.663-1.6604 1.663-0.92133 0-1.6604-0.7417-1.6604-1.663 0-0.92132 0.73911-1.6598 1.6604-1.6598h-3.7e-6zm-5.5744 0.66443h0.59111c-3.314e-4 4.8771-4.89e-5 10.011 0 14.668-2.5e-6 0.70173 0.57588 1.2776 1.2776 1.2776h10.648c0.1372 3e-3 0.1816-0.0161 0.26735-0.0954l0.82405-0.80977v1.6215c2e-6 0.34264-0.27053 0.61317-0.61317 0.61317h-12.995c-0.41226 0-0.73775-0.32615-0.73775-0.73841v-15.798c0-0.41226 0.32549-0.7384 0.73775-0.7384h-1e-5zm9.2288 1.3289c-0.18297 3.3e-4 -0.33121 0.14859-0.33157 0.33156-6.64e-4 0.18374 0.14784 0.33316 0.33157 0.33352h0.66443c0.18348-6.6e-4 0.33164-0.15003 0.33092-0.33352-3.31e-4 -0.18272-0.1482-0.33085-0.33092-0.33156zm1.9933 0c-0.18373-6.6e-4 -0.33316 0.14783-0.33352 0.33156-6.64e-4 0.18449 0.14902 0.33424 0.33352 0.33352h2.3249c0.18449 6.7e-4 0.33424-0.14903 0.33351-0.33352-3.33e-4 -0.18373-0.14978-0.33229-0.33351-0.33156zm3.7958 0.58527c0.39363 0.22734 0.78726 0.45468 1.1809 0.68196l-1.3814 2.3917c-0.34024-0.30912-0.74256-0.5416-1.1803-0.68195zm-11.437 2.7356c-0.18348 7.4e-4 -0.33164 0.15003-0.33092 0.33351 6.643e-4 0.18247 0.14846 0.33022 0.33092 0.33092h7.6416c0.18272-3.6e-4 0.33086-0.1482 0.33157-0.33092 6.64e-4 -0.18373-0.14784-0.33315-0.33157-0.33351zm9.6583 0.2576c0.48253 0.11502 0.91732 0.36633 1.2581 0.72673-0.05811 0.17275-0.11154 0.32817-0.14275 0.37179-0.02386 0.0334-0.08254 0.0977-0.16481 0.19337-0.36556-0.34545-0.80734-0.60043-1.2893-0.74425 0.04176-0.11916 0.06869-0.2021 0.08565-0.23943 0.02216-0.0488 0.13243-0.17142 0.25306-0.30821zm-9.6583 1.0713c-0.18348 7.3e-4 -0.33164 0.15004-0.33092 0.33351 3.315e-4 0.18273 0.1482 0.33086 0.33092 0.33157h0.66508c0.18272-7.3e-4 0.33056-0.14885 0.33092-0.33157 6.642e-4 -0.18347-0.14744-0.33279-0.33092-0.33351zm1.994 0c-0.18449-7.2e-4 -0.33424 0.14902-0.33352 0.33351 3.327e-4 0.18374 0.14978 0.33229 0.33352 0.33157h0.66444c0.18297-3.6e-4 0.33121-0.14859 0.33157-0.33157 6.643e-4 -0.18372-0.14784-0.33316-0.33157-0.33351zm1.994 0c-0.18449-7.2e-4 -0.33423 0.14902-0.33351 0.33351 3.314e-4 0.18374 0.14978 0.33229 0.33351 0.33157h1.9914c0.18373 7.3e-4 0.33316-0.14783 0.33352-0.33157 6.66e-4 -0.18449-0.14902-0.33423-0.33352-0.33351zm5.0079 0.10573c0.47088 0.11514 0.89473 0.36068 1.2302 0.7105-0.22197 0.65415-0.52894 1.2774-0.94734 1.8246-0.08336 0.10899-0.37582 0.17249-0.50416 0.10573-0.24829-0.12863-0.4899-0.26779-0.72543-0.41852-0.12202-0.0778-0.21302-0.36317-0.16027-0.48989 0.26473-0.63595 0.65148-1.2132 1.107-1.7325zm-8.9958 1.2238c-0.18348 7.3e-4 -0.33164 0.15004-0.33092 0.33351 6.643e-4 0.18247 0.14846 0.33022 0.33092 0.33092h2.6221c0.18348 7.4e-4 0.3328-0.14744 0.33351-0.33092 6.643e-4 -0.18449-0.14902-0.33423-0.33351-0.33351zm3.9879 0c-0.18449-7.2e-4 -0.33423 0.14902-0.33351 0.33351 6.642e-4 0.18348 0.15004 0.33165 0.33351 0.33092h1.6604c0.18247-6.9e-4 0.33021-0.14845 0.33092-0.33092 6.64e-4 -0.18347-0.14744-0.33279-0.33092-0.33351zm-3.9879 1.3289c-0.18272 7e-4 -0.33057 0.14885-0.33092 0.33157-6.642e-4 0.18347 0.14744 0.3328 0.33092 0.33351h5.3168c0.18373-3.7e-4 0.33229-0.14979 0.33157-0.33351-3.33e-4 -0.18297-0.1486-0.33122-0.33157-0.33157zm7.7552 0.26733c0.21256 0.13344 0.42898 0.25832 0.65081 0.37569l-0.63913 0.47821c-0.03424 0.0256-0.04897 0.0178-0.07397 4e-3 -0.02499-0.0144-0.03683-0.0225-0.03179-0.0649zm-7.7558 1.0609c-0.18348 7.3e-4 -0.33164 0.15004-0.33092 0.33351 6.643e-4 0.18247 0.14845 0.33022 0.33092 0.33092h0.66443c0.18348 7.4e-4 0.3328-0.14744 0.33352-0.33092 6.642e-4 -0.18449-0.14902-0.33424-0.33352-0.33351zm1.994 0c-0.18373 3.7e-4 -0.33229 0.14979-0.33157 0.33351 6.642e-4 0.18272 0.14885 0.33057 0.33157 0.33092h0.66444c0.18348 7.4e-4 0.3328-0.14744 0.33351-0.33092 6.643e-4 -0.18449-0.14902-0.33424-0.33351-0.33351zm1.9933 0c-0.18348 7.3e-4 -0.33164 0.15004-0.33092 0.33351 6.642e-4 0.18247 0.14845 0.33022 0.33092 0.33092h1.994c0.18247-6.9e-4 0.33021-0.14845 0.33092-0.33092 6.64e-4 -0.18347-0.14744-0.33279-0.33092-0.33351zm-3.9873 1.3295c-0.18348 7.3e-4 -0.33164 0.15004-0.33092 0.33351 6.643e-4 0.18246 0.14845 0.33021 0.33092 0.33092h2.624c0.18247-6.9e-4 0.33021-0.14846 0.33092-0.33092 6.643e-4 -0.18347-0.14744-0.33279-0.33092-0.33351zm3.9873 0c-0.18348 7.3e-4 -0.33164 0.15004-0.33092 0.33351 6.642e-4 0.18246 0.14845 0.33021 0.33092 0.33092h3.3235c0.18247-6.9e-4 0.33021-0.14846 0.33092-0.33092 6.65e-4 -0.18347-0.14744-0.33279-0.33092-0.33351zm-3.9873 1.3289c-0.18348 7.2e-4 -0.33164 0.15003-0.33092 0.33351 6.643e-4 0.18247 0.14845 0.33021 0.33092 0.33092h5.3168c0.18247-7e-4 0.33021-0.14845 0.33092-0.33092 6.64e-4 -0.18348-0.14744-0.3328-0.33092-0.33351zm6.6456 0c-0.18449-7.3e-4 -0.33424 0.14901-0.33352 0.33351 6.64e-4 0.18348 0.15004 0.33164 0.33352 0.33092h0.66508c0.18247-7e-4 0.33021-0.14845 0.33092-0.33092 6.65e-4 -0.18348-0.14744-0.3328-0.33092-0.33351zm2.6571 1e-3h2.2392l-1.41 1.384-0.82924 0.81303z" color="#000000" colorRendering="auto" dominantBaseline="auto" fillRule="evenodd" imageRendering="auto" shapeRendering="auto" solidcolor="#000000" stopColor="#000000" style="font-feature-settings:normal;font-variant-alternates:normal;font-variant-caps:normal;font-variant-east-asian:normal;font-variant-ligatures:normal;font-variant-numeric:normal;font-variant-position:normal;font-variation-settings:normal;inline-size:0;isolation:auto;mix-blend-mode:normal;shape-margin:0;shape-padding:0;text-decoration-color:#000000;text-decoration-line:none;text-decoration-style:solid;text-indent:0;text-orientation:mixed;text-transform:none;white-space:normal"/>
</g>
</svg>
